General
Complete name                    : Tatt av kvinnen.mkv
Format                           : Matroska
File size                        : 844 MiB
Duration                         : 1h 27mn
Overall bit rate                 : 1 350 Kbps


Video
ID                               : 1
Format                           : AVC
Duration                         : 1h 27mn
Bit rate                         : 875 Kbps
Width                            : 720 pixels
Height                           : 432 pixels
Display aspect ratio             : 2.35:1
Frame rate                       : 25.000 fps
Resolution                       : 8 bits
Colorimetry                      : 4:2:0
Scan type                        : Progressive
Bits/(Pixel*Frame)               : 0.113
Stream size                      : 547 MiB (65%)
Writing library                  : x264 core 79


Audio
ID                               : 2
Format                           : AC-3
Format/Info                      : Audio Coding 3
Codec ID                         : A_AC3
Duration                         : 1h 27mn
Bit rate mode                    : Constant
Bit rate                         : 448 Kbps
Channel(s)                       : 6 channels
Channel positions                : Front: L C R, Surround: L R, LFE
Sampling rate                    : 48.0 KHz
Stream size                      : 280 MiB (33%)
Language                         : Norwegian

Text #1
Language                         : Swedish

Text #2
Language                         : Norwegian

Text #3
Language                         : Finnish

Text #4
Language                         : English

